<svg xmlns="http://www.w3.org/2000/svg" version="1.1" xmlns:xlink="http://www.w3.org/1999/xlink" xmlns:svgjs="http://svgjs.dev/svgjs" width="526" height="526"><svg xmlns="http://www.w3.org/2000/svg" version="1.1" viewBox="0 0 526 526">
  <defs>
    <style>
      .cls-1 {
        fill: #f60;
      }
    </style>
  </defs>
  <!-- Generator: Adobe Illustrator 28.7.1, SVG Export Plug-In . SVG Version: 1.2.0 Build 142)  -->
  <g>
    <g id="SvgjsG1005">
      <g>
        <path class="cls-1" d="M331,413.6s-3.5,73.4,29.5,56c33-17.5,35.5-68.9,35.5-68.9l-64.9,13Z"></path>
        <path class="cls-1" d="M298.2,441.1v10.5c0,2.4,1.9,4.3,4.3,4.3s4.3-1.9,4.3-4.3v-10.5c0-2.4-1.9-4.3-4.3-4.3s-4.3,1.9-4.3,4.3h0Z"></path>
        <path class="cls-1" d="M275.5,349.9h0c0,0,0,0,0,0h0c0,0,0,0,0,0,.4,0,6.3,1,11.8,5,2.8,2,5.4,4.8,7.4,8.6,2,3.8,3.4,8.8,3.4,15.5v39.5c0,2.4,1.9,4.3,4.3,4.3s4.3-1.9,4.3-4.3v-39.5c0-8.2-1.8-14.8-4.7-20-4.3-7.8-10.7-12.3-15.9-14.7-5.3-2.4-9.4-2.9-9.7-3-2.4-.3-4.5,1.4-4.8,3.8-.3,2.4,1.4,4.5,3.8,4.8Z"></path>
        <path class="cls-1" d="M230.8,233.7c-6.3,0-11.4,8.6-11.4,19.1s5.1,19.2,11.4,19.2,11.4-8.6,11.4-19.2-5.1-19.1-11.4-19.1ZM230.8,262.5c-3.2,0-5.7-4.3-5.7-9.7s2.6-9.7,5.7-9.7,5.8,4.4,5.8,9.7-2.6,9.7-5.8,9.7ZM230.8,233.7c-6.3,0-11.4,8.6-11.4,19.1s5.1,19.2,11.4,19.2,11.4-8.6,11.4-19.2-5.1-19.1-11.4-19.1ZM230.8,262.5c-3.2,0-5.7-4.3-5.7-9.7s2.6-9.7,5.7-9.7,5.8,4.4,5.8,9.7-2.6,9.7-5.8,9.7ZM230.8,233.7c-6.3,0-11.4,8.6-11.4,19.1s5.1,19.2,11.4,19.2,11.4-8.6,11.4-19.2-5.1-19.1-11.4-19.1ZM230.8,262.5c-3.2,0-5.7-4.3-5.7-9.7s2.6-9.7,5.7-9.7,5.8,4.4,5.8,9.7-2.6,9.7-5.8,9.7ZM230.8,233.7c-6.3,0-11.4,8.6-11.4,19.1s5.1,19.2,11.4,19.2,11.4-8.6,11.4-19.2-5.1-19.1-11.4-19.1ZM230.8,262.5c-3.2,0-5.7-4.3-5.7-9.7s2.6-9.7,5.7-9.7,5.8,4.4,5.8,9.7-2.6,9.7-5.8,9.7ZM433.2,203.1c33.9-12.6-1.9-37.8,47.5-58.1,1.4-.6,2.7-1.2,4.1-1.7h0c10.6-4.7,18.1-9.5,23.1-14.3h0c16.2-15.4,6.2-30-11.7-37.2-24.2-9.7-4.8,43.6-28.1,47.5-23.2,3.9-7.7,13.6-38.7,31-31,17.4-61-2.9-38.7-16.5,22.3-13.5,27.1-36.8,12.6-35.8-14.5,1-28.1,33.9-60,18.4-32-15.5,13.6-9.7,26.6-54.7,13.1-45-29-26.1-36.3,8.7-7.3,34.9-82.8,97.4-69.7,20.4,13.1-77-30.5-16-33.4,2.9-2.9,18.9-10.2,20.3-30.5-1.5-20.3-21.8-34.9,13.1-33.4-1.4,1.4-14.5,7.3-71.2-14.5-50.9-21.8,20.3-1.5,77-10.2,104.6-8.7,27.6-33.4,29-37.7,1.5-4.4-27.6-20.3-34.9-27.6-30.5-7.3,4.4,11.6,36.3,11.6,36.3,2.9,62.4-24.7,37.8-36.3,45-11.6,7.3,7.3,36.3-5.8,50.8-13.1,14.5-34.9-31.9-33.4,34.9.3,12.8,1.4,22.1,3.1,28.8,4.5,17.5,13.2,17.2,23.2,16,6.1-.8,12.5-2,18.7.3,20.3,7.3-2.9,21.8,17.4,21.8s7.3,4.4,23.2,8.7c16,4.4-10.2,39.2,4.4,36.3,14.5-2.9,26.1-7.3,26.1-7.3l3.6.4h.8c6.6,27.5,20.4,42.2,38,49v-89.2c0-24.8,20.2-45,45-45h69.9c24.8,0,45,20.2,45,45v63.4c0,0,.1,0,.2,0,26.3-5.8,42.1-5.8,60-4.2h0c1.7.2,3.5.3,5.2.5,28.1,2.9,32-7.7,26.1-23.2-5.8-15.5,7.8-39.7,20.3-14.5,12.6,25.1,37.8,14.5,37.8-1.9s-22.3-14.5-20.3-29c1.5-11.4,14.3-6.2,24.4-1h0c2.8,1.4,5.4,2.8,7.5,3.9,6.8,3.4,13.1,2.5,15.6-1.9,0,0,0,0,0,0,1.1-1.9,1.4-4.5.9-7.7-.2-1-.5-1.8-.9-2.6,0,0,0,0,0,0-3-5.9-12.1-7.4-23.1-7h0c-3.8.2-7.7.5-11.8.9-17.4,1.9-17.4-8.7-38.7-24.2-21.3-15.5,6.8-22.3,22.3-9.7,15.5,12.6,27.1,21.3,26.2-3.9-1-25.1-29-9.7-35.8-33.9-5.4-19.2,31.1-36.5,37.9-43.4h0c1.3-1.4,1.5-2.3,0-2.8h0c-.5-.1-1.2-.2-2.1-.3-17.4-1-37.8,26.2-51.3,5.8-13.6-20.3-31.9-14.5,1.9-27.1ZM289.5,152.1c-1.2,1.2-35,34.7-38.6-22.5.6,5.7,6,42.3,38.6,22.5ZM110.2,199.6c.9-2.3,3.5-3.4,5.8-2.5l90.7,36c2.3.9,3.4,3.5,2.5,5.8-.9,2.3-3.5,3.5-5.8,2.5l-90.7-36c-2.3-.9-3.4-3.6-2.5-5.9ZM205.6,255.9l-73.4,8.3c-2.5.3-4.7-1.5-5-4-.3-2.5,1.5-4.7,4-5l73.5-8.2c2.5-.3,4.7,1.5,5,4,.3,2.5-1.5,4.7-4,5ZM154.6,363.4c-4.3-40.4,29.2-46.4,29.2-46.4-24.1,18-29.2,46.4-29.2,46.4ZM97.3,317.8c-2.3.9-4.9-.2-5.8-2.5-.9-2.3.2-4.9,2.4-5.8l112.4-45.7c2.3-.9,4.9.2,5.9,2.5.9,2.3-.2,4.9-2.5,5.9l-112.4,45.7ZM298.5,312.7h-89.7v-24.7h7.3v-70.3s11.2-16.5,33.9-3.9c22.8,12.6,32.5-16,41.7,1.4v72.7h6.8v24.7ZM365.9,158.1s-2.6,32.7,32.7,30.9c0,0-40.4,11.2-32.7-30.9ZM434.7,369.4c-18.1,2.8-22.1,16.3-22.9,21.3,4-28.7,22.9-21.3,22.9-21.3ZM230.8,233.7c-6.3,0-11.4,8.6-11.4,19.1s5.1,19.2,11.4,19.2,11.4-8.6,11.4-19.2-5.1-19.1-11.4-19.1ZM230.8,262.5c-3.2,0-5.7-4.3-5.7-9.7s2.6-9.7,5.7-9.7,5.8,4.4,5.8,9.7-2.6,9.7-5.8,9.7ZM230.8,233.7c-6.3,0-11.4,8.6-11.4,19.1s5.1,19.2,11.4,19.2,11.4-8.6,11.4-19.2-5.1-19.1-11.4-19.1ZM230.8,262.5c-3.2,0-5.7-4.3-5.7-9.7s2.6-9.7,5.7-9.7,5.8,4.4,5.8,9.7-2.6,9.7-5.8,9.7ZM230.8,233.7c-6.3,0-11.4,8.6-11.4,19.1s5.1,19.2,11.4,19.2,11.4-8.6,11.4-19.2-5.1-19.1-11.4-19.1ZM230.8,262.5c-3.2,0-5.7-4.3-5.7-9.7s2.6-9.7,5.7-9.7,5.8,4.4,5.8,9.7-2.6,9.7-5.8,9.7ZM230.8,233.7c-6.3,0-11.4,8.6-11.4,19.1s5.1,19.2,11.4,19.2,11.4-8.6,11.4-19.2-5.1-19.1-11.4-19.1ZM230.8,262.5c-3.2,0-5.7-4.3-5.7-9.7s2.6-9.7,5.7-9.7,5.8,4.4,5.8,9.7-2.6,9.7-5.8,9.7ZM230.8,233.7c-6.3,0-11.4,8.6-11.4,19.1s5.1,19.2,11.4,19.2,11.4-8.6,11.4-19.2-5.1-19.1-11.4-19.1ZM230.8,262.5c-3.2,0-5.7-4.3-5.7-9.7s2.6-9.7,5.7-9.7,5.8,4.4,5.8,9.7-2.6,9.7-5.8,9.7Z"></path>
        <path class="cls-1" d="M170.1,431.1s7,46-12,57c-19,11-41-31-22-95.9l34,39Z"></path>
        <path class="cls-1" d="M165.1,514c0,6.6-5.4,12-12,12s-12-5.4-12-12,5.4-12,12-12,12,5.4,12,12Z"></path>
        <path class="cls-1" d="M363.9,506.3c0,6.6-5.4,12-12,12s-12-5.4-12-12,5.4-12,12-12,12,5.4,12,12Z"></path>
        <path class="cls-1" d="M308.4,497.5h-120.3c-6.4,0-11.6,5.2-11.6,11.6s5.2,11.6,11.6,11.6h120.3c6.4,0,11.6-5.2,11.6-11.6s-5.2-11.6-11.6-11.6h0Z"></path>
        <path class="cls-1" d="M484.8,126.3v326.6c0,12.2-5.2,23.1-13.8,31.3-8.7,8.2-20.7,13.3-34.2,13.3h-38.1c-6.4,0-11.6,5.2-11.6,11.6s5.2,11.6,11.6,11.6h38.1c19.4,0,37.2-7.4,50.1-19.6,12.9-12.2,21.1-29.3,21.1-48.2V126.3c0-6.4-5.2-11.6-11.6-11.6s-11.6,5.2-11.6,11.6Z"></path>
        <path class="cls-1" d="M114.9,497.5h-28c-13.5,0-25.6-5.2-34.2-13.3-8.7-8.2-13.8-19.2-13.8-31.3v-138.7c0-6.4-5.2-11.6-11.6-11.6s-11.6,5.2-11.6,11.6v138.7c0,18.9,8.2,36,21.1,48.2,12.9,12.2,30.7,19.6,50.1,19.6h28c6.4,0,11.6-5.2,11.6-11.6s-5.2-11.6-11.6-11.6Z"></path>
        <path class="cls-1" d="M38.8,203.4V67.8c0-12.2,5.2-23.2,13.8-31.4,8.7-8.2,20.7-13.3,34.2-13.3h349.9c13.5,0,25.6,5.2,34.2,13.3,8.7,8.2,13.8,19.2,13.8,31.4,0,6.4,5.2,11.6,11.6,11.6s11.6-5.2,11.6-11.6c0-18.9-8.2-36-21.1-48.2-12.9-12.2-30.7-19.6-50.1-19.6H86.8c-19.4,0-37.2,7.4-50.1,19.6-12.9,12.2-21.1,29.3-21.1,48.2v135.5c0,6.4,5.2,11.6,11.6,11.6s11.6-5.2,11.6-11.6Z"></path>
        <path class="cls-1" d="M411.7,390.8c0,.5-.1,1-.2,1.5,0-.3,0-.8.2-1.5Z"></path>
      </g>
    </g>
  </g>
</svg><style>@media (prefers-color-scheme: light) { :root { filter: none; } }
@media (prefers-color-scheme: dark) { :root { filter: none; } }
</style></svg>