<?xml version="1.0" standalone="no"?>
<!DOCTYPE svg PUBLIC "-//W3C//DTD SVG 20010904//EN"
 "http://www.w3.org/TR/2001/REC-SVG-20010904/DTD/svg10.dtd">
<svg version="1.0" xmlns="http://www.w3.org/2000/svg"
 width="260.000000pt" height="260.000000pt" viewBox="0 0 260.000000 260.000000"
 preserveAspectRatio="xMidYMid meet">
<metadata>
Created by potrace 1.14, written by Peter Selinger 2001-2017
</metadata>
<g transform="translate(0.000000,260.000000) scale(0.100000,-0.100000)"
fill="#000000" stroke="none">
<path d="M1180 2406 c-69 -40 -219 -128 -335 -196 -116 -68 -283 -166 -372
-218 -90 -52 -163 -97 -163 -101 0 -3 60 -38 132 -77 l131 -71 124 74 124 75
226 -135 c125 -74 228 -138 230 -143 1 -5 -47 -38 -107 -74 -60 -36 -106 -68
-102 -71 4 -4 64 -36 134 -73 l126 -66 329 191 c180 105 353 205 383 223 30
18 104 61 163 96 59 35 104 66 100 70 -7 7 -628 363 -759 436 -27 15 -91 51
-142 81 -51 29 -94 53 -95 52 -1 0 -58 -33 -127 -73z m398 -355 l202 -124 -33
-22 c-58 -38 -194 -115 -203 -115 -6 0 -82 42 -171 94 -88 51 -164 95 -169 97
-5 2 -40 22 -77 44 -57 33 -66 42 -52 50 10 6 65 40 123 77 l106 67 36 -22
c20 -12 127 -78 238 -146z"/>
<path d="M232 1243 l3 -586 120 -64 c66 -35 181 -96 255 -135 74 -39 149 -78
165 -88 17 -10 84 -46 150 -81 66 -34 165 -87 219 -116 55 -29 100 -53 101
-53 1 0 3 73 5 163 1 89 3 200 5 247 1 47 6 232 10 411 l7 326 -89 48 c-48 27
-212 116 -363 198 -151 82 -300 163 -330 179 -30 17 -89 48 -130 71 -41 22
-84 46 -95 54 -11 7 -23 13 -27 13 -5 0 -7 -264 -6 -587z m343 137 c62 -35
113 -63 195 -108 41 -22 107 -58 145 -79 l70 -38 3 -78 3 -78 -23 14 c-13 8
-120 72 -238 142 -118 70 -217 129 -219 131 -6 5 -8 96 -3 117 3 11 8 14 16 8
6 -5 29 -19 51 -31z m237 -568 l178 -97 0 -72 0 -72 -167 96 c-91 52 -180 104
-197 114 -17 10 -49 28 -71 40 -22 12 -42 23 -44 25 -6 6 -9 116 -4 126 2 4
32 -8 66 -28 34 -19 142 -78 239 -132z"/>
<path d="M2275 1779 c-64 -38 -405 -232 -740 -421 -77 -44 -145 -84 -152 -89
-7 -7 -12 -56 -13 -147 -2 -150 -4 -257 -15 -704 l-7 -298 64 29 c34 15 98 45
141 65 l77 36 0 415 0 414 29 20 c16 12 31 21 34 21 2 0 105 58 227 129 123
72 227 128 231 126 3 -3 5 -35 3 -72 -1 -37 -5 -156 -8 -263 -4 -107 -9 -264
-12 -349 -4 -95 -2 -152 4 -150 5 2 57 36 116 74 l106 70 0 568 c0 312 -3 567
-7 567 -5 0 -39 -19 -78 -41z"/>
</g>
</svg>
